HIERARCHY
ROOT root.x
{
    OFFSET 0.0 0.0 0.0
    CHANNELS 6 Xposition Yposition Zposition Zrotation Xrotation Yrotation
    JOINT spine_01.x
    {
        OFFSET 0.0 5.0 0.0
        CHANNELS 3 Zrotation Xrotation Yrotation
        JOINT spine_02.x
        {
            OFFSET 0.0 5.0 0.0
            CHANNELS 3 Zrotation Xrotation Yrotation
            JOINT spine_03.x
            {
                OFFSET 0.0 5.0 0.0
                CHANNELS 3 Zrotation Xrotation Yrotation
                JOINT neck.x
                {
                    OFFSET 0.0 8.0 0.0
                    CHANNELS 3 Zrotation Xrotation Yrotation
                    JOINT head.x
                    {
                        OFFSET 0.0 5.0 0.0
                        CHANNELS 3 Zrotation Xrotation Yrotation
                        End Site
                        {
                            OFFSET 0.0 3.0 0.0
                        }
                    }
                }
                JOINT shoulder.l
                {
                    OFFSET -5.0 0.0 0.0
                    CHANNELS 3 Zrotation Xrotation Yrotation
                    JOINT arm_stretch.l
                    {
                        OFFSET 0.0 -10.0 0.0
                        CHANNELS 3 Zrotation Xrotation Yrotation
                        JOINT forearm_stretch.l
                        {
                            OFFSET 0.0 -10.0 0.0
                            CHANNELS 3 Zrotation Xrotation Yrotation
                            End Site
                            {
                                OFFSET 0.0 -3.0 0.0
                            }
                        }
                    }
                }
                JOINT shoulder.r
                {
                    OFFSET 5.0 0.0 0.0
                    CHANNELS 3 Zrotation Xrotation Yrotation
                    JOINT arm_stretch.r
                    {
                        OFFSET 0.0 -10.0 0.0
                        CHANNELS 3 Zrotation Xrotation Yrotation
                        JOINT forearm_stretch.r
                        {
                            OFFSET 0.0 -10.0 0.0
                            CHANNELS 3 Zrotation Xrotation Yrotation
                            End Site
                            {
                                OFFSET 0.0 -3.0 0.0
                            }
                        }
                    }
                }
            }
        }
    }
    JOINT thigh_stretch.l
    {
        OFFSET -2.0 0.0 0.0
        CHANNELS 3 Zrotation Xrotation Yrotation
        JOINT leg_stretch.l
        {
            OFFSET 0.0 -10.0 0.0
            CHANNELS 3 Zrotation Xrotation Yrotation
            End Site
            {
                OFFSET 0.0 -3.0 0.0
            }
        }
    }
    JOINT thigh_stretch.r
    {
        OFFSET 2.0 0.0 0.0
        CHANNELS 3 Zrotation Xrotation Yrotation
        JOINT leg_stretch.r
        {
            OFFSET 0.0 -10.0 0.0
            CHANNELS 3 Zrotation Xrotation Yrotation
            End Site
            {
                OFFSET 0.0 -3.0 0.0
            }
        }
    }
}

MOTION
Frames: 14
Frame Time: 0.033333
0.000000 0.000000 5.000000 0.000000 0.000000 0.000000 0.000000 2.500000 0.000000 0.596008 1.483157 0.265968 0.778837 0.955336 0.338785 0.564642 0.450224 0.234998 0.717356 0.412668 0.279612 0.000000 15.000000 0.000000 8.940120 22.247349 3.989523 23.365101 28.660095 10.163565 -0.000000 -0.000000 0.000000 8.940120 3.362358 -3.989523 23.365101 8.865606 -10.163565 0.000000 10.000000 0.000000 7.946773 19.775422 3.546242 -0.000000 -0.000000 0.000000 7.946773 2.988763 -3.546242
0.314108 0.000000 4.999112 0.000000 0.000000 0.000000 0.626666 2.488905 0.281072 0.959813 1.455479 0.422368 1.003574 0.923286 0.425576 0.663632 0.427759 0.265779 0.799020 0.384268 0.295029 3.759997 14.933429 1.686432 14.397195 21.832189 6.335522 30.107233 27.698573 12.767284 3.759997 1.411625 -1.686432 14.397195 5.441096 -6.335522 30.107233 11.523413 -12.767284 2.506665 9.955620 1.124288 12.797507 19.406390 5.631575 2.506665 0.941083 -1.124288 12.797507 4.836530 -5.631575
0.627905 0.000000 4.996447 0.000000 0.000000 0.000000 1.243449 2.455718 0.552187 1.308481 1.414883 0.563806 1.212485 0.883040 0.497291 0.752156 0.401497 0.287145 0.868083 0.352457 0.299994 7.460697 14.734309 3.313121 19.627219 21.223244 8.457083 36.374556 26.491197 14.918717 7.460697 2.810720 -3.313121 19.627219 7.471539 -8.457083 36.374556 14.078938 -14.918717 4.973798 9.822873 2.208747 17.446417 18.865106 7.517407 4.973798 1.873813 -2.208747 17.446417 6.641368 -7.517407
0.941083 0.000000 4.992008 0.000000 0.000000 0.000000 1.840623 2.400734 0.803740 1.636514 1.361728 0.685270 1.402274 0.834956 0.551388 0.828818 0.371671 0.298338 0.923456 0.317517 0.294332 11.043737 14.404405 4.822441 24.547709 20.425921 10.279047 42.068231 25.048683 16.541646 11.043737 4.184867 -4.822441 24.547709 9.435664 -10.279047 42.068231 16.509497 -16.541646 7.362491 9.602937 3.214961 21.820186 18.156374 9.136930 7.362491 2.789911 -3.214961 21.820186 8.387257 -9.136930
1.253332 0.000000 4.985795 0.000000 0.000000 0.000000 2.408768 2.324441 1.026821 1.938738 1.296486 0.782458 1.569949 0.779461 0.585953 0.892408 0.338547 0.298963 0.964265 0.279759 0.278243 14.452610 13.946647 6.160924 29.081067 19.447296 11.736870 47.098465 23.383835 17.578580 14.452610 5.521868 -6.160924 29.081067 11.316037 -11.736870 47.098465 18.793517 -17.578580 9.635073 9.297765 4.107283 25.849837 17.286485 10.432773 9.635073 3.681246 -4.107283 25.849837 10.058699 -10.432773
1.564345 0.000000 4.977810 0.000000 0.000000 0.000000 2.938926 2.227516 1.213525 2.210387 1.219737 0.851927 1.712864 0.717048 0.599759 0.941925 0.302417 0.288996 0.989867 0.239519 0.252298 17.633558 13.365098 7.281153 33.155800 18.296055 12.778909 51.385928 21.511430 17.992783 17.633558 6.809857 -7.281153 33.155800 13.095968 -12.778909 51.385928 20.910724 -17.992783 11.755705 8.910065 4.854102 29.471822 16.263160 11.359030 11.755705 4.539905 -4.854102 29.471822 11.640861 -11.359030
1.873813 0.000000 4.968057 0.000000 0.000000 0.000000 3.422736 2.110820 1.357241 2.447176 1.132161 0.891217 1.828767 0.648270 0.592319 0.976588 0.263603 0.268792 0.999859 0.197152 0.217414 20.536413 12.664919 8.143443 36.707645 16.982417 13.368249 54.863004 19.448089 17.769583 20.536413 8.037402 -8.143443 36.707645 14.759659 -13.368249 54.863004 22.842326 -17.769583 13.690942 8.443279 5.428962 32.629018 15.095482 11.882888 13.690942 5.358268 -5.428962 32.629018 13.119697 -11.882888
2.181432 0.000000 4.956538 0.000000 0.000000 0.000000 3.852566 1.975388 1.452875 2.645373 1.034536 0.898934 1.915829 0.573737 0.563896 0.995849 0.222450 0.239066 0.994082 0.153035 0.174829 23.115397 11.852325 8.717248 39.680589 15.518042 13.484012 57.474857 17.212125 16.916887 23.115397 9.193606 -8.717248 39.680589 16.292341 -13.484012 57.474857 24.571177 -16.916887 15.410265 7.901550 5.811499 35.271635 13.793815 11.985789 15.410265 6.129071 -5.811499 35.271635 14.482081 -11.985789
2.486899 0.000000 4.943259 0.000000 0.000000 0.000000 4.221640 1.822422 1.497040 2.801850 0.927728 0.874806 1.972677 0.494113 0.515497 0.999404 0.179322 0.200871 0.972628 0.107560 0.126050 25.329838 10.934529 8.982241 42.027747 13.915927 13.122097 59.180298 14.823385 15.464902 25.329838 10.268207 -8.982241 42.027747 17.680412 -13.122097 59.180298 26.081934 -15.464902 16.886559 7.289686 5.988160 37.357997 12.369713 11.664087 16.886559 6.845471 -5.988160 37.357997 15.715922 -11.664087
2.789911 0.000000 4.928223 0.000000 0.000000 0.000000 4.524135 1.653280 1.488172 2.914140 0.812686 0.819688 1.998414 0.410102 0.448835 0.987199 0.134602 0.155559 0.935834 0.061130 0.072805 27.144812 9.919678 8.929032 43.712102 12.190294 12.295326 59.952430 12.303071 13.465064 27.144812 11.251666 -8.929032 43.712102 18.911550 -12.295326 59.952430 27.361185 -13.465064 18.096541 6.613119 5.952688 38.855202 10.835817 10.929178 18.096541 7.501111 -5.952688 38.855202 16.810267 -10.929178
3.090170 0.000000 4.911436 0.000000 0.000000 0.000000 4.755283 1.469463 1.426585 2.980473 0.690431 0.735532 1.992636 0.322452 0.366274 0.959425 0.088688 0.104737 0.884283 0.014157 0.016982 28.531695 8.816779 8.559509 44.707091 10.356459 11.032986 59.779077 9.673555 10.988221 28.531695 12.135255 -8.559509 44.707091 19.974828 -11.032986 59.779077 28.397576 -10.988221 19.021130 5.877853 5.706339 39.739636 9.205741 9.807099 19.021130 8.090170 -5.706339 39.739636 17.755403 -9.807099
3.387379 0.000000 4.892905 0.000000 0.000000 0.000000 4.911436 1.272604 1.314460 2.999801 0.562047 0.625320 1.955432 0.231939 0.270737 0.916520 0.041986 0.050205 0.818785 -0.032941 -0.039443 29.468618 7.635621 7.886760 44.997022 8.430699 9.379797 58.662972 6.958175 8.122113 29.468618 12.911130 -7.886760 44.997022 20.860808 -9.379797 58.662972 29.181909 -8.122113 19.645745 5.090414 5.257840 39.997353 7.493955 8.337598 19.645745 8.607420 -5.257840 39.997353 18.542940 -8.337598
3.681246 0.000000 4.872634 0.000000 0.000000 0.000000 4.990134 1.064448 1.155770 2.971822 0.428674 0.492955 1.887391 0.139368 0.165609 0.859161 -0.005088 -0.006106 0.740375 -0.079746 -0.094471 29.940802 6.386689 6.934619 44.577324 6.430108 7.394325 56.621716 4.181034 4.968277 29.940802 13.572406 -6.934619 44.577324 21.561626 -7.394325 56.621716 29.707221 -4.968277 19.960535 4.257793 4.623079 39.624288 5.715652 6.572733 19.960535 9.048271 -4.623079 39.624288 19.165890 -6.572733
3.971479 0.000000 4.850633 0.000000 0.000000 0.000000 4.990134 0.846845 0.956136 2.896974 0.291496 0.343127 1.789583 0.045559 0.054615 0.788253 -0.052118 -0.062200 0.650289 -0.125844 -0.146152 29.940802 5.081069 5.736816 43.454614 4.372443 5.146904 53.687503 1.366782 1.638436 29.940802 14.113212 -5.736816 43.454614 22.071061 -5.146904 53.687503 29.968849 -1.638436 19.960535 3.387379 3.824544 38.626324 3.886616 4.575026 19.960535 9.408808 -3.824544 38.626324 19.618721 -4.575026
